HIERARCHY
ROOT Hips
{
	OFFSET 0.00000 0.00000 0.00000
	CHANNELS 6 Xposition Yposition Zposition Zrotation Yrotation Xrotation 
	JOINT LHipJoint
	{
		OFFSET 0 0 0
		CHANNELS 3 Zrotation Yrotation Xrotation
		JOINT LeftUpLeg
		{
			OFFSET 1.64549 -1.70879 0.84566
			CHANNELS 3 Zrotation Yrotation Xrotation
			JOINT LeftLeg
			{
				OFFSET 2.24963 -6.18082 0.00000
				CHANNELS 3 Zrotation Yrotation Xrotation
				JOINT LeftFoot
				{
					OFFSET 2.71775 -7.46697 0.00000
					CHANNELS 3 Zrotation Yrotation Xrotation
					JOINT LeftToeBase
					{
						OFFSET 0.18768 -0.51564 2.24737
						CHANNELS 3 Zrotation Yrotation Xrotation
						End Site
						{
							OFFSET 0.00000 -0.00000 1.15935
						}
					}
				}
			}
		}
	}
	JOINT RHipJoint
	{
		OFFSET 0 0 0
		CHANNELS 3 Zrotation Yrotation Xrotation
		JOINT RightUpLeg
		{
			OFFSET -1.58830 -1.70879 0.84566
			CHANNELS 3 Zrotation Yrotation Xrotation
			JOINT RightLeg
			{
				OFFSET -2.25006 -6.18201 0.00000
				CHANNELS 3 Zrotation Yrotation Xrotation
				JOINT RightFoot
				{
					OFFSET -2.72829 -7.49593 0.00000
					CHANNELS 3 Zrotation Yrotation Xrotation
					JOINT RightToeBase
					{
						OFFSET -0.21541 -0.59185 2.10643
						CHANNELS 3 Zrotation Yrotation Xrotation
						End Site
						{
							OFFSET -0.00000 -0.00000 1.09838
						}
					}
				}
			}
		}
	}
	JOINT LowerBack
	{
		OFFSET 0 0 0
		CHANNELS 3 Zrotation Yrotation Xrotation
		JOINT Spine
		{
			OFFSET 0.03142 2.10496 -0.11038
			CHANNELS 3 Zrotation Yrotation Xrotation
			JOINT Spine1
			{
				OFFSET -0.01863 2.10897 -0.06956
				CHANNELS 3 Zrotation Yrotation Xrotation
				JOINT Neck
				{
					OFFSET 0 0 0
					CHANNELS 3 Zrotation Yrotation Xrotation
					JOINT Neck1
					{
						OFFSET -0.02267 1.73238 0.00451
						CHANNELS 3 Zrotation Yrotation Xrotation
						JOINT Head
						{
							OFFSET -0.05808 1.54724 -0.61749
							CHANNELS 3 Zrotation Yrotation Xrotation
							End Site
							{
								OFFSET -0.01396 1.71468 -0.21082
							}
						}
					}
				}
				JOINT LeftShoulder
				{
					OFFSET 0 0 0
					CHANNELS 3 Zrotation Yrotation Xrotation
					JOINT LeftArm
					{
						OFFSET 3.44898 0.50298 0.21920
						CHANNELS 3 Zrotation Yrotation Xrotation
						JOINT LeftForeArm
						{
							OFFSET 5.41917 -0.00000 -0.00000
							CHANNELS 3 Zrotation Yrotation Xrotation
							JOINT LeftHand
							{
								OFFSET 2.44373 -0.00000 0.00000
								CHANNELS 3 Zrotation Yrotation Xrotation
								JOINT LeftFingerBase
								{
									OFFSET 0 0 0
									CHANNELS 3 Zrotation Yrotation Xrotation
									JOINT LeftHandIndex1
									{
										OFFSET 0.72750 -0.00000 0.00000
										CHANNELS 3 Zrotation Yrotation Xrotation
										End Site
										{
											OFFSET 0.58653 -0.00000 0.00000
										}
									}
								}
								JOINT LThumb
								{
									OFFSET 0 0 0
									CHANNELS 3 Zrotation Yrotation Xrotation
									End Site
									{
										OFFSET 0.59549 -0.00000 0.59549
									}
								}
							}
						}
					}
				}
				JOINT RightShoulder
				{
					OFFSET 0 0 0
					CHANNELS 3 Zrotation Yrotation Xrotation
					JOINT RightArm
					{
						OFFSET -3.23015 0.55830 0.31051
						CHANNELS 3 Zrotation Yrotation Xrotation
						JOINT RightForeArm
						{
							OFFSET -5.58976 -0.00010 0.00014
							CHANNELS 3 Zrotation Yrotation Xrotation
							JOINT RightHand
							{
								OFFSET -2.48060 -0.00000 0.00000
								CHANNELS 3 Zrotation Yrotation Xrotation
								JOINT RightFingerBase
								{
									OFFSET 0 0 0
									CHANNELS 3 Zrotation Yrotation Xrotation
									JOINT RightHandIndex1
									{
										OFFSET -0.81601 -0.00000 0.00000
										CHANNELS 3 Zrotation Yrotation Xrotation
										End Site
										{
											OFFSET -0.65789 -0.00000 0.00000
										}
									}
								}
								JOINT RThumb
								{
									OFFSET 0 0 0
									CHANNELS 3 Zrotation Yrotation Xrotation
									End Site
									{
										OFFSET -0.66793 -0.00000 0.66793
									}
								}
							}
						}
					}
				}
			}
		}
	}
}
MOTION
Frames: 6
Frame Time: .0083333
-0.3023 14.8708 2.0019 -180.2680 -7.5288 -158.3770 0.0000 0.0000 0.0000 2.7916 -28.4737 -74.6507 18.5607 19.9503 85.7886 1.7557 10.5371 -30.7275 0.1693 -2.6509 -7.3084 0.0000 0.0000 0.0000 32.4766 24.0111 -24.7055 -9.0930 -16.8672 56.4111 -5.5728 -7.8899 -47.6201 -0.8173 -5.7688 16.1150 5.4212 -1.1607 0.5131 -1.6905 -1.7823 -6.1888 -4.6807 -1.4022 -6.9840 -3.1225 -0.2132 -23.7277 0.2868 -0.0561 28.6685 0.5533 -0.6625 13.6922 -0.0000 0.0000 0.0000 -77.3914 23.4553 14.7337 22.7808 -33.8483 -7.0158 -0.0000 0.0000 -53.7286 -0.7194 19.3335 -0.2382 -7.1250 0.0000 -0.0000 -27.4339 47.2672 -1.6550 -0.0000 0.0000 0.0000 80.5837 4.5345 40.4387 -49.1843 52.6612 -25.5242 0.0000 -0.0000 -42.5867 -0.5885 3.8870 -0.0399 7.1250 -0.0000 -0.0000 19.4350 -25.9665 9.4883
-0.2932 14.9892 1.7193 -180.7780 -7.6068 -157.8190 0.0000 0.0000 0.0000 4.0709 -30.0606 -76.4917 17.7491 19.8781 83.4058 1.6025 9.3431 -28.8806 0.1506 -2.5009 -6.8921 0.0000 0.0000 0.0000 32.5444 24.4565 -22.5247 -8.4090 -16.4120 54.0228 -5.1799 -8.5596 -46.3413 -0.9245 -6.1255 17.1490 4.6728 -0.7823 -0.0725 -1.9736 -1.4376 -6.8335 -4.5827 -1.2628 -7.2752 -3.2084 -0.4853 -22.9486 0.8313 -0.7506 29.1649 0.6498 -0.9400 13.7555 0.0000 0.0000 0.0000 -77.6445 26.9592 16.0536 24.9679 -36.1712 -8.2710 -0.0000 0.0000 -55.8529 -3.3731 18.0437 -1.0459 -7.1250 0.0000 -0.0000 -29.0966 45.7837 -0.6155 0.0000 0.0000 0.0000 80.1926 4.7178 40.8731 -54.7984 54.7565 -30.0513 0.0000 -0.0000 -46.6988 0.5468 3.6047 0.0344 7.1250 -0.0000 -0.0000 20.2983 -26.2143 9.8373
-0.2833 15.1207 1.4274 -182.2670 -7.2547 -157.5630 0.0000 0.0000 0.0000 3.6649 -31.5864 -77.3309 16.8226 19.7562 80.6737 1.4476 7.9139 -26.8158 0.1216 -2.2482 -6.1921 0.0000 0.0000 0.0000 31.7193 24.7847 -19.7880 -7.7828 -15.9572 51.7767 -4.8094 -9.6829 -45.3416 -0.9475 -6.1991 17.3631 2.7866 -0.3783 0.0260 -2.6102 -1.1290 -7.5539 -4.2039 -1.0971 -8.0397 -3.1483 -0.8134 -21.9865 1.2752 -1.5928 29.6771 0.6555 -1.2908 13.7947 0.0000 0.0000 0.0000 -77.5121 30.7520 17.8333 27.3341 -38.4959 -9.7064 -0.0000 0.0000 -57.8194 -5.2966 17.5632 -1.6025 -7.1250 0.0000 -0.0000 -30.4904 45.1249 -0.1040 0.0000 0.0000 0.0000 79.7968 4.3745 41.0480 -61.0785 56.5906 -35.2400 0.0000 -0.0000 -50.6472 1.2882 4.3571 0.0979 7.1250 -0.0000 -0.0000 20.6993 -25.4969 10.4334
-0.2801 15.2551 1.1274 -183.0640 -7.3321 -157.3960 0.0000 0.0000 0.0000 3.9130 -32.9610 -78.1751 15.8752 19.5871 77.8598 1.2751 6.5481 -24.6150 0.1825 -2.7519 -7.5887 0.0000 0.0000 0.0000 31.6098 24.8378 -17.2200 -7.1940 -15.4931 49.6043 -4.4670 -10.3307 -44.2339 -0.9443 -6.1891 17.3341 1.6045 -0.0352 -0.6077 -2.9375 -0.8106 -7.7724 -3.9062 -0.9017 -7.8593 -3.3654 -1.2660 -21.3104 2.0032 -2.5084 29.7192 0.8173 -1.6320 13.7087 -0.0000 -0.0000 0.0000 -77.5372 33.6771 19.3672 29.8486 -40.7632 -11.3106 -0.0000 0.0000 -59.6981 -6.6865 17.4778 -2.0165 -7.1250 0.0000 -0.0000 -31.6083 44.8802 0.1043 -0.0000 -0.0000 0.0000 79.2238 4.6429 40.6986 -67.1895 57.9397 -40.3822 0.0000 -0.0000 -53.7220 3.8784 2.8230 0.1913 7.1250 -0.0000 -0.0000 22.8207 -26.8638 10.8740
-0.2361 15.3838 0.8374 -183.0060 -5.7524 -156.5410 0.0000 0.0000 0.0000 4.7688 -32.1920 -79.8133 14.9167 19.3689 74.9857 1.1318 5.0917 -22.5362 0.3522 -3.8128 -10.5506 0.0000 0.0000 0.0000 31.4710 26.2679 -15.5066 -6.6842 -15.0601 47.6694 -3.9261 -10.2592 -41.8616 -0.8718 -5.9530 16.6480 -0.1548 0.8397 -2.6077 -2.8949 0.2840 -7.7378 -2.9123 -0.2532 -6.5767 -3.7819 -1.7031 -21.4084 2.7736 -3.2380 29.6879 1.0645 -1.8787 13.7658 0.0000 -0.0000 0.0000 -78.0297 35.4436 20.2694 32.4333 -42.8899 -13.0348 -0.0000 0.0000 -61.0293 -7.8861 17.2380 -2.3505 -7.1250 0.0000 -0.0000 -32.4798 44.5276 0.4260 0.0000 -0.0000 0.0000 78.3346 5.9289 40.3140 -72.8035 58.8526 -45.1648 0.0000 -0.0000 -56.9220 5.3905 2.7404 0.2585 7.1250 -0.0000 -0.0000 23.9046 -26.8920 11.4684
-0.2249 15.5384 0.5448 -183.9130 -5.0125 -156.5980 0.0000 0.0000 0.0000 3.9036 -32.6953 -79.8423 13.8643 19.0723 71.7895 0.9203 4.1594 -20.0838 0.5643 -4.8114 -13.3716 0.0000 0.0000 0.0000 30.5665 25.6472 -13.6008 -6.2483 -14.6648 45.9705 -3.5041 -9.2921 -39.4129 -0.8939 -6.0262 16.8604 -1.8674 1.3510 -2.9194 -3.1747 0.8831 -7.8764 -2.2590 0.1144 -6.5506 -4.1896 -2.0810 -21.2939 3.4424 -3.9733 30.1256 1.2647 -2.1768 13.9887 -0.0000 -0.0000 0.0000 -78.3908 37.8334 21.2282 34.9988 -44.8112 -14.8125 -0.0000 0.0000 -62.0355 -9.6899 16.3516 -2.7522 -7.1250 0.0000 -0.0000 -33.5066 43.5543 1.3610 -0.0000 -0.0000 0.0000 77.4031 6.2864 40.2378 -78.5413 59.4980 -50.0932 0.0000 -0.0000 -60.6185 6.0703 2.3867 0.2537 7.1250 -0.0000 -0.0000 24.4571 -27.1921 11.5926
